<?xml version="1.0" encoding="utf-8"?>
<!-- Generator: Adobe Illustrator 22.0.1, SVG Export Plug-In . SVG Version: 6.00 Build 0)  -->
<svg version="1.1" id="Ebene_1" xmlns="http://www.w3.org/2000/svg" xmlns:xlink="http://www.w3.org/1999/xlink" x="0px" y="0px"
	 viewBox="0 0 399.9 123.3" style="enable-background:new 0 0 399.9 123.3;" xml:space="preserve">
<style type="text/css">
	.st0{fill:#E8E100;stroke:#CEC800;stroke-width:0.75;}
	.st1{fill:#17ADD6;}
</style>
<g>
	<path class="st0" d="M219.4,67.1c-38.6-16.6-159.2,12-178-4.9c-1.2-1.4-13.5-11.8-14.7-13.4c-5.2-7.6-7.8-16.9-1.5-23.7
		c12.9-13.8,34.6-16.4,48.9-4.4c4.6,6,1.9,14.1-0.1,22.1c-5,19.5-30.8,30.4-48,19.3c-2.5-1.6-4.9-3.5-7.2-5.6
		c-7.8-8.3-12.3-19-4.9-26.7c11.3-11.9,27.6-7.6,42.8-1.1c0.6,0.3,1.2,0.6,1.7,0.9c6.9,9.9-0.7,33.1-13.4,33.1
		c-9.3,0-19.7-2.5-26.1-7.9c-2.5-3.1-3.9-6.9-3.6-11.4c1.3-16.1,35.6-21.3,35.6-21.3c2.6,0.6,4.8,1.7,6.7,3.2
		c4.6,5.7,6,14.2,3.7,21.7c-4.1,13.7-22.8,15-35.6,8.5c-2-1-3.9-2.1-5.6-3.4c-1.5-2-2.3-4.4-1.8-7.2c2-10.4,10.9-15,21.3-16.3
		c5.4-0.8,12.1,0.7,16.2,3.7c1.3,1.8,1.8,4,1.1,6.4c-0.2,0.6-0.3,1.1-0.5,1.7c1,0,2,0,3,0c-3.2,11.8-27.6,18.8-36.9,13
		c-0.6-1.1-1-2.4-1-3.9c0-15.2,31.3-13.6,40.9-12.8c-0.8,7.9-5.4,15.2-13.3,15.2c-7.6,0-16.4-2.5-21.9-7.1c-2.4-3-3.5-6.7-2.4-10.9
		c5.2-18.9,31.3-24.7,48-15c0.6,0.4,1.3,0.8,1.8,1.3c3.4,4.3,4.3,10.1,3.2,16.1C73.5,57.3,34.5,71.5,20,60.4
		c-1.3-1.7-2.2-3.9-2.6-6.4c-3.7-24.3,46.9-41.7,46.9-41.7c1.3,0.7,2.4,1.5,3.5,2.4c8.3,9.8,7.6,26.2-0.9,36.7
		c-9.3,11.4-25.7,22.3-36.2,13.3c-7.3-7.5-11.9-13.1-16.8-23C8,29.9,17.3,17.3,28.6,10.8C40.8,3.7,56,5.8,66.1,14.9
		c1.3,1.5,2.5,3.1,3.5,4.8c9.3,15.2-3.5,35.4-20,42.1C37,66.9,18.9,66.2,9.5,58.4c-2.3-2.8-3.6-6.3-3.6-10.5
		c0-16.9,38.9-19.1,38.9-19.1c1.3,0.7,2.4,1.4,3.4,2.3c6.4,7.9,5.3,19.9,4.4,31.8c-10.5,0-26.1,0.3-32.8-3.8
		c-0.6-1.2-0.7-2.6-0.2-4.3c3.6-11.6,25.7-13.1,33.6-13.2c-2.3,8-18.5,14-25.3,11c-0.2-0.6-0.3-1.2-0.3-1.9c0-6,11-6.6,16.9-6.2
		c-5.5,9.7-22.8,13.3-25.5,14.9l2.6,2.6c2.9-1.7,22.4-5.6,26.5-16.9c0,0,0,0,0,0l-2.6-2.6c-0.7-0.7-20.4-2.4-20.4,5.7
		c0,1.5,0.5,2.6,1.3,3.4l2.6,2.6c5.7,5.7,28.3-2.5,27.1-12.5L53.4,39c-0.2,0-32.1-0.9-36.5,13.2c-0.7,2.4-0.2,4.2,1.3,5.7l2.6,2.6
		c5.3,5.3,22.9,5,34.3,5c0.9-12.6,2.2-25.4-5.6-33.2l-2.6-2.6c-1.3-1.3-2.9-2.5-4.8-3.5c0,0-38.9,2.2-38.9,19.1
		c0,4.9,1.8,8.8,4.9,11.8l2.6,2.6c8.9,8.9,28.3,10,41.6,4.7c16.5-6.7,29.3-26.9,20-42.1c-1.4-2.3-3-4.3-4.8-6.1l-2.6-2.6
		C54.7,3.4,38.7,0.8,26,8.2C14.7,14.7,5.4,27.3,11.3,39c5.2,10.6,10.2,16.3,18.5,24.7c0,0,0.1,0.1,0.1,0.1l2.6,2.6
		c10.4,10.4,27.5-0.8,37-12.5c8.9-11,9.2-28.4-0.4-38l-2.6-2.6c-1.4-1.4-3-2.6-4.8-3.7c0,0-50.6,17.4-46.9,41.7
		c0.5,3.3,1.8,5.8,3.8,7.8l2.6,2.6C34.4,75,76,60.6,80.3,39.2c1.3-6.6,0-13.1-4.4-17.5l-2.6-2.6c-0.9-0.9-2-1.8-3.2-2.5
		c-16.7-9.8-42.8-3.9-48,15c-1.3,4.9,0.3,9,3.6,12.3l2.6,2.6c5.4,5.4,15.1,8.4,23.3,8.4c8.7,0,13.5-8.9,13.5-17.6l-2.6-2.6
		c-0.9,0-43.6-5.2-43.6,12.6c0,2.2,0.8,4,2.1,5.3l2.6,2.6c8.3,8.3,38.7-0.4,38.7-14.4l-2.6-2.6c-18,0-36.3-2.2-44.1,14.1l2.6,2.6
		c15.4,7.6,36.7,3,41.2-13.2c0.8-3.1-0.2-5.7-2.3-7.8l-2.6-2.6c-3.9-3.9-11.6-5.9-17.7-5C26.5,27.5,17.6,32,15.6,42.5
		c-0.6,3.5,0.7,6.3,3,8.6l2.6,2.6c1.9,1.9,4.4,3.4,7,4.7c12.8,6.5,31.5,5.2,35.6-8.5c2.5-8.1,0.6-17.5-5-23.1l-2.6-2.6
		c-2.2-2.2-4.9-3.7-8.1-4.5c0,0-34.3,5.2-35.6,21.3c-0.4,5.2,1.5,9.5,4.8,12.8l2.6,2.6c6.3,6.3,17.5,9.2,27.5,9.2
		c13.4,0,21.1-25.7,12.2-34.6l-2.6-2.6c-0.9-0.9-1.9-1.6-3.1-2.1c-15.2-6.5-31.5-10.9-42.8,1.1c-7.8,8.1-2.3,19.5,6.2,28l2.6,2.6
		c2.7,2.7,5.6,5,8.6,7c17.2,11.1,43,0.2,48-19.3c2.1-8.7,5.1-17.3-1-23.4L73,19.5c-0.2-0.2-0.3-0.3-0.5-0.5
		C58.2,6,35.8,8.4,22.5,22.5c-6.3,6.7-3.7,16.1,1.5,23.7c1.5,2.2,3.1,4.1,4.8,5.8l13.7,11.5C61.4,82.3,180.8,54,222,69.7L219.4,67.1
		z"/>
	<path class="st0" d="M219.4,67.1c-38.6-16.6-159.2,12-178-4.9c-1.2-1.4-13.5-11.8-14.7-13.4c-5.2-7.6-7.8-16.9-1.5-23.7
		c12.9-13.8,34.6-16.4,48.9-4.4c4.6,6,1.9,14.1-0.1,22.1c-5,19.5-30.8,30.4-48,19.3c-2.5-1.6-4.9-3.5-7.2-5.6
		c-7.8-8.3-12.3-19-4.9-26.7c11.3-11.9,27.6-7.6,42.8-1.1c0.6,0.3,1.2,0.6,1.7,0.9c6.9,9.9-0.7,33.1-13.4,33.1
		c-9.3,0-19.7-2.5-26.1-7.9c-2.5-3.1-3.9-6.9-3.6-11.4c1.3-16.1,35.6-21.3,35.6-21.3c2.6,0.6,4.8,1.7,6.7,3.2
		c4.6,5.7,6,14.2,3.7,21.7c-4.1,13.7-22.8,15-35.6,8.5c-2-1-3.9-2.1-5.6-3.4c-1.5-2-2.3-4.4-1.8-7.2c2-10.4,10.9-15,21.3-16.3
		c5.4-0.8,12.1,0.7,16.2,3.7c1.3,1.8,1.8,4,1.1,6.4c-0.2,0.6-0.3,1.1-0.5,1.7c1,0,2,0,3,0c-3.2,11.8-27.6,18.8-36.9,13
		c-0.6-1.1-1-2.4-1-3.9c0-15.2,31.3-13.6,40.9-12.8c-0.8,7.9-5.4,15.2-13.3,15.2c-7.6,0-16.4-2.5-21.9-7.1c-2.4-3-3.5-6.7-2.4-10.9
		c5.2-18.9,31.3-24.7,48-15c0.7,0.4,1.3,0.8,1.8,1.3c3.4,4.3,4.3,10.1,3.2,16.1C73.5,57.3,34.5,71.5,20,60.4
		c-1.3-1.7-2.2-3.9-2.6-6.4c-3.7-24.3,46.9-41.7,46.9-41.7c1.3,0.7,2.4,1.5,3.5,2.4c8.3,9.8,7.6,26.2-0.9,36.7
		c-9.3,11.4-25.7,22.3-36.2,13.3c-7.3-7.5-11.9-13.1-16.8-23C8,29.9,17.3,17.3,28.6,10.8C40.8,3.7,56,5.8,66.1,14.9
		c1.3,1.5,2.5,3.1,3.5,4.8c9.3,15.2-3.5,35.4-20,42.1C37,66.9,18.9,66.2,9.5,58.4c-2.3-2.8-3.6-6.3-3.6-10.5
		c0-16.9,38.9-19.1,38.9-19.1c1.3,0.7,2.4,1.4,3.4,2.3c6.4,7.9,5.3,19.9,4.4,31.8c-10.5,0-26.1,0.3-32.8-3.8
		c-0.6-1.2-0.7-2.6-0.2-4.3c3.6-11.6,25.7-13.1,33.6-13.2c-2.3,8-18.5,14-25.3,11c-0.2-0.6-0.3-1.2-0.3-1.9c0-6,11-6.6,16.9-6.2
		c-5.5,9.7-22.8,13.3-25.5,14.9l2.6,2.6c2.9-1.7,22.4-5.6,26.5-16.9c0,0,0,0,0,0l-2.6-2.6c-0.7-0.7-20.4-2.4-20.4,5.7
		c0,1.5,0.5,2.6,1.3,3.4l2.6,2.6c5.7,5.7,28.3-2.5,27.1-12.5L53.4,39c-0.2,0-32.1-0.9-36.5,13.2c-0.7,2.4-0.2,4.2,1.3,5.7l2.6,2.6
		c5.3,5.3,22.9,5,34.3,5c0.9-12.6,2.2-25.4-5.6-33.2l-2.6-2.6c-1.3-1.3-2.9-2.5-4.8-3.5c0,0-38.9,2.2-38.9,19.1
		c0,4.9,1.8,8.8,4.9,11.8l2.6,2.6c8.9,8.9,28.3,10,41.6,4.7c16.5-6.7,29.3-26.9,20-42.1c-1.4-2.3-3-4.3-4.8-6.1l-2.6-2.6
		C54.7,3.4,38.7,0.8,26,8.2C14.7,14.7,5.4,27.3,11.3,39c5.2,10.6,10.2,16.3,18.5,24.7c0,0,0.1,0.1,0.1,0.1l2.6,2.6
		c10.4,10.4,27.5-0.8,37-12.5c8.9-11,9.2-28.4-0.4-38l-2.6-2.6c-1.4-1.4-3-2.6-4.8-3.7c0,0-50.6,17.4-46.9,41.7
		c0.5,3.3,1.8,5.8,3.8,7.8l2.6,2.6C34.4,75,76,60.6,80.3,39.2c1.3-6.6,0-13.1-4.4-17.5l-2.6-2.6c-0.9-0.9-2-1.8-3.2-2.5
		c-16.7-9.8-42.8-3.9-48,15c-1.3,4.9,0.3,9,3.6,12.3l2.6,2.6c5.4,5.4,15.1,8.4,23.3,8.4c8.7,0,13.5-8.9,13.5-17.6l-2.6-2.6
		c-0.9,0-43.6-5.2-43.6,12.6c0,2.2,0.8,4,2.1,5.3l2.6,2.6c8.3,8.3,38.7-0.4,38.7-14.4l-2.6-2.6c-18,0-36.3-2.2-44.1,14.1l2.6,2.6
		c15.4,7.6,36.7,3,41.2-13.2c0.8-3.1-0.2-5.7-2.3-7.8l-2.6-2.6c-3.9-3.9-11.6-5.9-17.7-5C26.5,27.5,17.6,32,15.6,42.5
		c-0.6,3.5,0.7,6.3,3,8.6l2.6,2.6c1.9,1.9,4.4,3.4,7,4.7c12.8,6.5,31.5,5.2,35.6-8.5c2.5-8.1,0.6-17.5-5-23.1l-2.6-2.6
		c-2.2-2.2-4.9-3.7-8.1-4.5c0,0-34.3,5.2-35.6,21.3c-0.4,5.2,1.5,9.5,4.8,12.8l2.6,2.6c6.3,6.3,17.5,9.2,27.5,9.2
		c13.4,0,21.1-25.7,12.2-34.6l-2.6-2.6c-0.9-0.9-1.9-1.6-3.1-2.1c-15.2-6.5-31.5-10.9-42.8,1.1c-7.8,8.1-2.3,19.5,6.2,28l2.6,2.6
		c2.7,2.7,5.6,5,8.6,7c17.2,11.1,43,0.2,48-19.3c2.1-8.7,5.1-17.3-1-23.4L73,19.5c-0.2-0.2-0.3-0.3-0.5-0.5
		C58.2,6,35.8,8.4,22.5,22.5c-6.3,6.7-3.7,16.1,1.5,23.7c1.5,2.2,3.1,4.1,4.8,5.8l13.7,11.5C61.4,82.3,180.8,54,222,69.7L219.4,67.1
		z"/>
</g>
<g>
	<g>
		<path class="st1" d="M103.5,19h10.9c11.3,0,19,6.6,19,17.4c0,10.1-8.9,17.6-19,17.6h-10.9V19z M114.5,49.6c6,0,12.4-5.2,12.4-13.1
			c0-9-6.1-13-12.5-13h-4.9v26.1H114.5z"/>
		<path class="st1" d="M153.9,54.7c-10.3,0-17.5-8-17.5-18.2c0-10.2,7.3-18.2,17.5-18.2c6.4,0,9.6,1.7,11.1,2.4l-1.7,4.3
			c-1.1-0.5-4.2-2-9.1-2c-6.4,0-11.6,6.1-11.6,13.5c0,8.2,5.6,13.5,12,13.5c3.4,0,4.7-0.4,6-0.9V39h5.6v13.1
			C164.5,52.9,160.6,54.7,153.9,54.7z"/>
		<path class="st1" d="M181.1,50.3c3.3,0,6.2-2,6.2-4.7c0-3.3-3.8-5.1-7.7-7.5c-3.6-2.2-8.5-5.2-8.5-10.5c0-5.2,4.8-9.2,11-9.2
			c5.3,0,8.2,1.2,9.9,1.9l-1.8,4.2c-1.4-0.6-3.8-1.7-7.2-1.7c-3.5,0-5.7,1.4-5.7,3.8c0,3.4,3.4,4.9,7.4,7.3
			c3.6,2.2,9.2,5.6,9.2,10.6c0,6.2-6.8,10.2-12.8,10.2c-6.2,0-9.5-1.7-11-2.5l1.8-4C173.1,48.7,176.1,50.3,181.1,50.3z"/>
		<path class="st1" d="M198.7,54V19h20.9v4.5h-14.9v10.3h10.9v4.5h-10.9V54H198.7z"/>
	</g>
	<g>
		<path class="st1" d="M102.8,79.7h3.6c3.8,0,6.4,2.2,6.4,5.9c0,3.4-3,5.9-6.4,5.9h-3.6V79.7z M106.5,89.9c2,0,4.2-1.8,4.2-4.4
			c0-3-2.1-4.4-4.2-4.4h-1.6v8.8H106.5z"/>
		<path class="st1" d="M118.7,90.3c1.2,0,1.8-0.2,2.1-0.4l0.4,1c-0.5,0.2-1.2,0.7-3.1,0.7c-2.4,0-3.9-1.5-3.9-4
			c0-2.4,1.7-4.1,3.8-4.1c1.9,0,3.6,1.3,3.6,4.2h-5.3C116.2,89.3,117,90.3,118.7,90.3z M117.9,84.8c-1,0-1.5,0.8-1.7,1.8h3.3
			C119.4,85.4,118.8,84.8,117.9,84.8z"/>
		<path class="st1" d="M125,83.7v5.1c0,0.8,0.3,1.3,1.2,1.3c0.9,0,1.6-0.5,1.9-0.8v-5.7h1.9v7.8h-1.8l-0.1-0.8c-0.4,0.3-1.3,1-2.7,1
			c-1.5,0-2.3-0.9-2.3-2.4v-5.6H125z"/>
		<path class="st1" d="M135,91.6c-1.4,0-2.3-0.7-2.3-2.2v-4.6h-1.4v-1.1h1.4l0.7-3.2h1.1l0.1,3.2h2.1v1.1h-2.1v4.1
			c0,0.9,0.3,1.3,1,1.4c0.5,0.1,1,0.1,1.3,0l0.1,1.1C136.5,91.5,136,91.6,135,91.6z"/>
		<path class="st1" d="M141,90.4c0.6,0,1.2-0.3,1.2-0.8c0-0.6-0.9-1-1.7-1.4c-0.7-0.4-1.9-1-1.9-2.4c0-1.2,1-2.3,2.6-2.3
			c1.4,0,2.1,0.3,2.5,0.6l-0.5,1.1c-0.4-0.2-1-0.5-1.9-0.5c-0.6,0-1,0.3-1,0.7c0,0.6,0.8,0.9,1.6,1.4c0.7,0.3,2.1,1.1,2.1,2.4
			c0,1.5-1.5,2.4-2.9,2.4c-1.7,0-2.4-0.4-2.9-0.6l0.5-1.2C139,90,140,90.4,141,90.4z"/>
		<path class="st1" d="M149.2,83.5c1.5,0,2.2,0.3,2.6,0.5l-0.4,1.2c-0.4-0.2-0.9-0.4-2-0.4c-1,0-2.3,0.9-2.3,2.8
			c0,1.7,1.3,2.8,2.3,2.8c1.1,0,1.6-0.2,2-0.4l0.4,1.1c-0.4,0.2-1.1,0.5-2.7,0.5c-2.5,0-4.1-1.7-4.1-4.1
			C145.1,85.1,147.1,83.5,149.2,83.5z"/>
		<path class="st1" d="M158.4,91.4v-5.1c0-0.8-0.3-1.3-1.3-1.3c-0.8,0-1.6,0.5-2,0.8v5.7h-1.9V79.2l1.9-0.2v5.5c0.4-0.3,1.1-1,2.8-1
			c1.5,0,2.3,1,2.3,2.4v5.6H158.4z"/>
		<path class="st1" d="M166.4,90.3c1.2,0,1.8-0.2,2.1-0.4l0.4,1c-0.5,0.2-1.2,0.7-3.1,0.7c-2.4,0-3.9-1.5-3.9-4
			c0-2.4,1.7-4.1,3.8-4.1c1.9,0,3.6,1.3,3.6,4.2H164C164,89.3,164.8,90.3,166.4,90.3z M165.7,84.8c-1,0-1.5,0.8-1.7,1.8h3.3
			C167.2,85.4,166.6,84.8,165.7,84.8z"/>
		<path class="st1" d="M181.3,91.7c-3.6,0-6.2-2.7-6.2-6.1c0-3.4,2.6-6.1,6.2-6.1c2.3,0,3.4,0.6,3.9,0.8l-0.6,1.4
			c-0.4-0.2-1.5-0.7-3.2-0.7c-2.3,0-4.1,2-4.1,4.5c0,2.8,2,4.5,4.2,4.5c1.2,0,1.7-0.1,2.1-0.3v-3.4h2v4.4
			C185.1,91,183.7,91.7,181.3,91.7z"/>
		<path class="st1" d="M191.7,90.3c1.2,0,1.8-0.2,2.1-0.4l0.4,1c-0.5,0.2-1.2,0.7-3.1,0.7c-2.4,0-3.9-1.5-3.9-4
			c0-2.4,1.7-4.1,3.8-4.1c1.9,0,3.6,1.3,3.6,4.2h-5.3C189.2,89.3,190.1,90.3,191.7,90.3z M190.9,84.8c-1,0-1.5,0.8-1.7,1.8h3.3
			C192.4,85.4,191.9,84.8,190.9,84.8z"/>
		<path class="st1" d="M198.4,90.4c0.6,0,1.2-0.3,1.2-0.8c0-0.6-0.9-1-1.7-1.4c-0.7-0.4-1.9-1-1.9-2.4c0-1.2,1-2.3,2.6-2.3
			c1.4,0,2.1,0.3,2.5,0.6l-0.5,1.1c-0.4-0.2-1-0.5-1.9-0.5c-0.6,0-1,0.3-1,0.7c0,0.6,0.8,0.9,1.6,1.4c0.7,0.3,2.1,1.1,2.1,2.4
			c0,1.5-1.5,2.4-2.9,2.4c-1.7,0-2.4-0.4-2.9-0.6l0.5-1.2C196.5,90,197.4,90.4,198.4,90.4z"/>
		<path class="st1" d="M207,90.3c1.2,0,1.8-0.2,2.1-0.4l0.4,1c-0.5,0.2-1.2,0.7-3.1,0.7c-2.4,0-3.9-1.5-3.9-4c0-2.4,1.7-4.1,3.8-4.1
			c1.9,0,3.6,1.3,3.6,4.2h-5.3C204.6,89.3,205.4,90.3,207,90.3z M206.3,84.8c-1,0-1.5,0.8-1.7,1.8h3.3
			C207.8,85.4,207.2,84.8,206.3,84.8z"/>
		<path class="st1" d="M211.6,79.2l1.9-0.2v12.5h-1.9V79.2z"/>
		<path class="st1" d="M215.6,79.2l1.9-0.2v12.5h-1.9V79.2z"/>
		<path class="st1" d="M221.9,90.4c0.6,0,1.2-0.3,1.2-0.8c0-0.6-0.9-1-1.7-1.4c-0.7-0.4-1.9-1-1.9-2.4c0-1.2,1-2.3,2.6-2.3
			c1.4,0,2.1,0.3,2.5,0.6l-0.5,1.1c-0.4-0.2-1-0.5-1.9-0.5c-0.6,0-1,0.3-1,0.7c0,0.6,0.8,0.9,1.6,1.4c0.7,0.3,2.1,1.1,2.1,2.4
			c0,1.5-1.5,2.4-2.9,2.4c-1.7,0-2.4-0.4-2.9-0.6l0.5-1.2C219.9,90,220.9,90.4,221.9,90.4z"/>
		<path class="st1" d="M230.1,83.5c1.5,0,2.2,0.3,2.6,0.5l-0.4,1.2c-0.4-0.2-0.9-0.4-2-0.4c-1,0-2.3,0.9-2.3,2.8
			c0,1.7,1.3,2.8,2.3,2.8c1.1,0,1.6-0.2,2-0.4l0.4,1.1c-0.4,0.2-1.1,0.5-2.7,0.5c-2.5,0-4.1-1.7-4.1-4.1
			C226,85.1,228,83.5,230.1,83.5z"/>
		<path class="st1" d="M239.3,91.4v-5.1c0-0.8-0.3-1.3-1.3-1.3c-0.8,0-1.6,0.5-2,0.8v5.7h-1.9V79.2l1.9-0.2v5.5c0.4-0.3,1.1-1,2.8-1
			c1.5,0,2.3,1,2.3,2.4v5.6H239.3z"/>
		<path class="st1" d="M245.1,91.6c-1.5,0-2.4-0.9-2.4-2.1c0-1.3,1.1-2.5,3-2.6l1.6-0.1v-0.7c0-0.7-0.2-1.4-1.4-1.4
			c-1.1,0-1.8,0.4-2.2,0.5l-0.4-1c0.5-0.2,1.6-0.8,3.2-0.8c1.8,0,2.7,0.9,2.7,2.3v4.4c0,0.4,0.2,1,0.3,1.2h-2
			c-0.1-0.2-0.2-0.5-0.2-0.7C247,91,246.2,91.6,245.1,91.6z M247.4,87.9l-1.1,0.1c-1,0.1-1.8,0.5-1.8,1.3c0,0.8,0.6,1,1.3,1
			c0.7,0,1.3-0.4,1.6-0.7V87.9z"/>
		<path class="st1" d="M256.7,79.2l-0.4,1.2c-0.3-0.1-0.6-0.2-1.2-0.2c-0.8,0-1.3,1-1.3,2.1v1.5h1.8v1.1h-1.8v6.6h-1.9v-6.6h-1.2
			v-1.1h1.2v-0.6c0-2.6,0.8-4.3,3-4.3C255.7,78.8,256.3,79,256.7,79.2z"/>
		<path class="st1" d="M260,91.6c-1.4,0-2.3-0.7-2.3-2.2v-4.6h-1.4v-1.1h1.4l0.7-3.2h1.1l0.1,3.2h2.1v1.1h-2.1v4.1
			c0,0.9,0.3,1.3,1,1.4c0.5,0.1,1,0.1,1.3,0l0.1,1.1C261.6,91.5,261.1,91.6,260,91.6z"/>
		<path class="st1" d="M273.3,79.2l-0.4,1.2c-0.3-0.1-0.6-0.2-1.2-0.2c-0.8,0-1.3,1-1.3,2.1v1.5h1.8v1.1h-1.8v6.6h-1.9v-6.6h-1.2
			v-1.1h1.2v-0.6c0-2.6,0.8-4.3,3-4.3C272.3,78.8,273,79,273.3,79.2z"/>
		<path class="st1" d="M275.2,83.7v5.1c0,0.8,0.3,1.3,1.2,1.3c0.9,0,1.6-0.5,1.9-0.8v-5.7h1.9v7.8h-1.8l-0.1-0.8
			c-0.4,0.3-1.3,1-2.7,1c-1.5,0-2.3-0.9-2.3-2.4v-5.6H275.2z M274.9,80.7c0.5,0,1,0.4,1,1c0,0.5-0.4,1-1,1c-0.5,0-1-0.4-1-1
			C274,81.1,274.4,80.7,274.9,80.7z M278.5,80.7c0.5,0,1,0.4,1,1c0,0.5-0.4,1-1,1c-0.5,0-1-0.4-1-1C277.5,81.1,278,80.7,278.5,80.7z
			"/>
		<path class="st1" d="M282.3,91.4v-7.8h1.8l0.1,1.3c0.3-0.4,1.1-1.5,2.1-1.5c0.7,0,1.1,0.3,1.3,0.5l-0.7,1.3
			c-0.2-0.2-0.5-0.3-1-0.3c-0.8,0-1.4,0.8-1.7,1.1v5.3H282.3z"/>
		<path class="st1" d="M296.5,90.2c1.1,0,2-0.7,2-1.6c0-1.1-1.2-1.7-2.5-2.5c-1.2-0.7-2.8-1.8-2.8-3.5c0-1.8,1.6-3.1,3.6-3.1
			c1.7,0,2.7,0.4,3.2,0.7l-0.6,1.4c-0.5-0.2-1.2-0.6-2.3-0.6c-1.1,0-1.9,0.5-1.9,1.3c0,1.1,1.1,1.6,2.4,2.5c1.2,0.7,3,1.9,3,3.6
			c0,2.1-2.2,3.4-4.2,3.4c-2,0-3.1-0.6-3.6-0.8l0.6-1.4C293.9,89.7,294.8,90.2,296.5,90.2z"/>
		<path class="st1" d="M305.2,93.4c-0.5,1.2-1.3,2.3-2.6,2.3c-1.1,0-1.7-0.4-2-0.6l0.6-1.2c0.4,0.2,0.8,0.4,1.3,0.4
			c0.9,0,1.1-0.8,1.5-1.7l0.4-1l-3.2-7.9h2l2.2,5.6l2-5.6h1.8L305.2,93.4z"/>
		<path class="st1" d="M312.5,90.4c0.6,0,1.2-0.3,1.2-0.8c0-0.6-0.9-1-1.7-1.4c-0.7-0.4-1.9-1-1.9-2.4c0-1.2,1-2.3,2.6-2.3
			c1.4,0,2.1,0.3,2.5,0.6l-0.5,1.1c-0.4-0.2-1-0.5-1.9-0.5c-0.6,0-1,0.3-1,0.7c0,0.6,0.8,0.9,1.6,1.4c0.7,0.3,2.1,1.1,2.1,2.4
			c0,1.5-1.5,2.4-2.9,2.4c-1.7,0-2.4-0.4-2.9-0.6l0.5-1.2C310.5,90,311.5,90.4,312.5,90.4z"/>
		<path class="st1" d="M320.1,91.6c-1.4,0-2.3-0.7-2.3-2.2v-4.6h-1.4v-1.1h1.4l0.7-3.2h1.1l0.1,3.2h2.1v1.1h-2.1v4.1
			c0,0.9,0.3,1.3,1,1.4c0.5,0.1,1,0.1,1.3,0l0.1,1.1C321.7,91.5,321.2,91.6,320.1,91.6z"/>
		<path class="st1" d="M327.4,90.3c1.2,0,1.8-0.2,2.1-0.4l0.4,1c-0.5,0.2-1.2,0.7-3.1,0.7c-2.4,0-3.9-1.5-3.9-4
			c0-2.4,1.7-4.1,3.8-4.1c1.9,0,3.6,1.3,3.6,4.2h-5.3C324.9,89.3,325.7,90.3,327.4,90.3z M326.6,84.8c-1,0-1.5,0.8-1.7,1.8h3.3
			C328.1,85.4,327.6,84.8,326.6,84.8z"/>
		<path class="st1" d="M343.1,91.4h-1.9v-5.1c0-0.8-0.3-1.4-1.1-1.4c-0.7,0-1.3,0.5-1.6,0.7v5.8h-1.9v-5.1c0-0.8-0.2-1.4-1.1-1.4
			c-0.7,0-1.3,0.5-1.6,0.7v5.7h-1.9v-7.8h1.8l0.1,0.8c0.4-0.3,1.3-1,2.4-1c1.1,0,1.6,0.4,2,1c0.4-0.4,1.3-1,2.6-1
			c1.6,0,2.3,1,2.3,2.3V91.4z"/>
		<path class="st1" d="M347.2,80.7c0,0.6-0.5,1.1-1.1,1.1c-0.6,0-1.1-0.5-1.1-1.1c0-0.5,0.5-1.1,1.1-1.1
			C346.7,79.7,347.2,80.2,347.2,80.7z M347.1,83.7v7.8h-1.9v-7.8H347.1z"/>
		<path class="st1" d="M351.5,90.4c0.6,0,1.2-0.3,1.2-0.8c0-0.6-0.9-1-1.7-1.4c-0.7-0.4-1.9-1-1.9-2.4c0-1.2,1-2.3,2.6-2.3
			c1.4,0,2.1,0.3,2.5,0.6l-0.5,1.1c-0.4-0.2-1-0.5-1.9-0.5c-0.6,0-1,0.3-1,0.7c0,0.6,0.8,0.9,1.6,1.4c0.7,0.3,2.1,1.1,2.1,2.4
			c0,1.5-1.5,2.4-2.9,2.4c-1.7,0-2.4-0.4-2.9-0.6l0.5-1.2C349.5,90,350.5,90.4,351.5,90.4z"/>
		<path class="st1" d="M359.7,83.5c1.5,0,2.2,0.3,2.6,0.5l-0.4,1.2c-0.4-0.2-0.9-0.4-2-0.4c-1,0-2.3,0.9-2.3,2.8
			c0,1.7,1.3,2.8,2.3,2.8c1.1,0,1.6-0.2,2-0.4l0.4,1.1c-0.4,0.2-1.1,0.5-2.7,0.5c-2.5,0-4.1-1.7-4.1-4.1
			C355.6,85.1,357.6,83.5,359.7,83.5z"/>
		<path class="st1" d="M368.9,91.4v-5.1c0-0.8-0.3-1.3-1.3-1.3c-0.8,0-1.6,0.5-2,0.8v5.7h-1.9V79.2l1.9-0.2v5.5c0.4-0.3,1.1-1,2.8-1
			c1.5,0,2.3,1,2.3,2.4v5.6H368.9z"/>
		<path class="st1" d="M376.9,90.3c1.2,0,1.8-0.2,2.1-0.4l0.4,1c-0.5,0.2-1.2,0.7-3.1,0.7c-2.4,0-3.9-1.5-3.9-4
			c0-2.4,1.7-4.1,3.8-4.1c1.9,0,3.6,1.3,3.6,4.2h-5.3C374.5,89.3,375.3,90.3,376.9,90.3z M376.2,84.8c-1,0-1.5,0.8-1.7,1.8h3.3
			C377.7,85.4,377.1,84.8,376.2,84.8z"/>
		<path class="st1" d="M101.9,101.7h9.5v1.5h-3.7v10.2h-2v-10.2h-3.8V101.7z"/>
		<path class="st1" d="M118,113.4v-5.1c0-0.8-0.3-1.3-1.3-1.3c-0.8,0-1.6,0.5-2,0.8v5.7h-1.9v-12.2l1.9-0.2v5.5c0.4-0.3,1.1-1,2.8-1
			c1.5,0,2.3,1,2.3,2.4v5.6H118z"/>
		<path class="st1" d="M126,112.3c1.2,0,1.8-0.2,2.1-0.4l0.4,1c-0.5,0.2-1.2,0.7-3.1,0.7c-2.4,0-3.9-1.5-3.9-4
			c0-2.4,1.7-4.1,3.8-4.1c1.9,0,3.6,1.3,3.6,4.2h-5.3C123.6,111.3,124.4,112.3,126,112.3z M125.3,106.8c-1,0-1.5,0.8-1.7,1.8h3.3
			C126.8,107.4,126.2,106.8,125.3,106.8z"/>
		<path class="st1" d="M130.5,113.4v-7.8h1.8l0.1,1.3c0.3-0.4,1.1-1.5,2.1-1.5c0.7,0,1.1,0.3,1.3,0.5l-0.7,1.3
			c-0.2-0.2-0.5-0.3-1-0.3c-0.8,0-1.4,0.8-1.7,1.1v5.3H130.5z"/>
		<path class="st1" d="M138.9,113.6c-1.5,0-2.4-0.9-2.4-2.1c0-1.3,1.1-2.5,3-2.6l1.6-0.1v-0.7c0-0.7-0.2-1.4-1.4-1.4
			c-1.1,0-1.8,0.4-2.2,0.5l-0.4-1c0.5-0.2,1.6-0.8,3.2-0.8c1.8,0,2.7,0.9,2.7,2.3v4.4c0,0.4,0.2,1,0.3,1.2h-2
			c-0.1-0.2-0.2-0.5-0.2-0.7C140.7,113,140,113.6,138.9,113.6z M141.1,109.9L140,110c-1,0.1-1.8,0.5-1.8,1.3c0,0.8,0.6,1,1.3,1
			c0.7,0,1.3-0.4,1.6-0.7V109.9z"/>
		<path class="st1" d="M147,105.7l0.1,0.7c0.4-0.3,1-0.9,2.4-0.9c2.1,0,3.6,1.4,3.6,3.9c0,2.6-1.8,4.2-3.6,4.2
			c-1.4,0-2.1-0.4-2.4-0.5v4.4h-1.9v-11.8H147z M149,112.3c0.9,0,2-0.8,2-2.9c0-1.9-1.1-2.6-2-2.6c-0.9,0-1.6,0.5-1.9,0.7v4.3
			C147.4,112,148,112.3,149,112.3z"/>
		<path class="st1" d="M156.8,102.7c0,0.6-0.5,1.1-1.1,1.1c-0.6,0-1.1-0.5-1.1-1.1c0-0.5,0.5-1.1,1.1-1.1
			C156.3,101.7,156.8,102.2,156.8,102.7z M156.7,105.7v7.8h-1.9v-7.8H156.7z"/>
		<path class="st1" d="M162.9,112.3c1.2,0,1.8-0.2,2.1-0.4l0.4,1c-0.5,0.2-1.2,0.7-3.1,0.7c-2.4,0-3.9-1.5-3.9-4
			c0-2.4,1.7-4.1,3.8-4.1c1.9,0,3.6,1.3,3.6,4.2h-5.3C160.4,111.3,161.2,112.3,162.9,112.3z M162.1,106.8c-1,0-1.5,0.8-1.7,1.8h3.3
			C163.6,107.4,163,106.8,162.1,106.8z"/>
		<path class="st1" d="M167.1,112.3c0-0.7,0.6-1.2,1.3-1.2s1.2,0.5,1.2,1.2c0,0.3-0.1,0.6-0.2,0.7l-1.6,2.7l-0.7-0.3l0.8-2
			C167.5,113.3,167.1,112.9,167.1,112.3z"/>
		<path class="st1" d="M176.3,101.7h3.4c2.4,0,3.9,1.2,3.9,2.7c0,1.5-1.1,2.3-1.9,2.7c1.7,0.2,2.9,1.4,2.9,2.9c0,2-2.1,3.5-4.2,3.5
			h-4V101.7z M179.3,106.8c1.3,0,2.2-0.8,2.2-2c0-1-0.7-1.7-2.2-1.7h-1v3.7H179.3z M182.4,110.1c0-1.1-0.8-1.9-2.5-1.9h-1.7v3.9h1.6
			C181.4,112.1,182.4,111.2,182.4,110.1z"/>
		<path class="st1" d="M190.3,112.3c1.2,0,1.8-0.2,2.1-0.4l0.4,1c-0.5,0.2-1.2,0.7-3.1,0.7c-2.4,0-3.9-1.5-3.9-4
			c0-2.4,1.7-4.1,3.8-4.1c1.9,0,3.6,1.3,3.6,4.2h-5.3C187.9,111.3,188.7,112.3,190.3,112.3z M189.6,106.8c-1,0-1.5,0.8-1.7,1.8h3.3
			C191.1,107.4,190.5,106.8,189.6,106.8z"/>
		<path class="st1" d="M194.8,113.4v-7.8h1.8l0.1,1.3c0.3-0.4,1.1-1.5,2.1-1.5c0.7,0,1.1,0.3,1.3,0.5l-0.7,1.3
			c-0.2-0.2-0.5-0.3-1-0.3c-0.8,0-1.4,0.8-1.7,1.1v5.3H194.8z"/>
		<path class="st1" d="M203.2,113.6c-1.5,0-2.4-0.9-2.4-2.1c0-1.3,1.1-2.5,3-2.6l1.6-0.1v-0.7c0-0.7-0.2-1.4-1.4-1.4
			c-1.1,0-1.8,0.4-2.2,0.5l-0.4-1c0.5-0.2,1.6-0.8,3.2-0.8c1.8,0,2.7,0.9,2.7,2.3v4.4c0,0.4,0.2,1,0.3,1.2h-2
			c-0.1-0.2-0.2-0.5-0.2-0.7C205,113,204.3,113.6,203.2,113.6z M205.4,109.9l-1.1,0.1c-1,0.1-1.8,0.5-1.8,1.3c0,0.8,0.6,1,1.3,1
			c0.7,0,1.3-0.4,1.6-0.7V109.9z"/>
		<path class="st1" d="M212.3,113.6c-1.4,0-2.3-0.7-2.3-2.2v-4.6h-1.4v-1.1h1.4l0.7-3.2h1.1l0.1,3.2h2.1v1.1h-2.1v4.1
			c0,0.9,0.3,1.3,1,1.4c0.5,0.1,1,0.1,1.3,0l0.1,1.1C213.9,113.5,213.4,113.6,212.3,113.6z"/>
		<path class="st1" d="M217.5,105.7v5.1c0,0.8,0.3,1.3,1.2,1.3c0.9,0,1.6-0.5,1.9-0.8v-5.7h1.9v7.8h-1.8l-0.1-0.8
			c-0.4,0.3-1.3,1-2.7,1c-1.5,0-2.3-0.9-2.3-2.4v-5.6H217.5z"/>
		<path class="st1" d="M229.7,113.4v-5.1c0-0.8-0.3-1.3-1.2-1.3c-0.9,0-1.6,0.5-2,0.8v5.7h-1.9v-7.8h1.8l0.1,0.8
			c0.4-0.3,1.2-1,2.8-1c1.5,0,2.4,1,2.4,2.4v5.6H229.7z"/>
		<path class="st1" d="M236.2,110.5c-0.5,0-1.3,0.1-1.3,0.8c0,0.7,0.8,0.8,1.3,0.8h2.2c1.7,0,2.9,1,2.7,2.7
			c-0.2,1.7-2.2,2.9-4.1,2.9c-2,0-4.2-0.5-4.2-2.2c0-1.2,0.9-1.8,1.4-2.1c-0.4-0.2-1-0.7-1-1.7c0-0.9,0.7-1.7,1.4-2
			c-0.4-0.2-1-0.8-1-1.7c0-1.2,1-2.5,2.9-2.5c0.8,0,1.3,0.1,1.5,0.2h3v1h-1.7c0.2,0.2,0.5,0.6,0.5,1.3c0,1.7-1.5,2.5-3.1,2.5H236.2z
			 M234.4,115.3c0,0.9,1.4,1.2,2.5,1.2c1.2,0,2.4-0.7,2.5-1.6c0.1-0.9-0.5-1.3-1.3-1.3h-2.5C235.2,113.9,234.4,114.5,234.4,115.3z
			 M235.4,108c0,0.7,0.5,1.3,1.4,1.3c1,0,1.4-0.6,1.4-1.3c0-0.7-0.4-1.4-1.4-1.4C235.9,106.6,235.4,107.4,235.4,108z"/>
		<path class="st1" d="M248.7,105.7v5.1c0,0.8,0.3,1.3,1.2,1.3c0.9,0,1.6-0.5,1.9-0.8v-5.7h1.9v7.8h-1.8l-0.1-0.8
			c-0.4,0.3-1.3,1-2.7,1c-1.5,0-2.3-0.9-2.3-2.4v-5.6H248.7z"/>
		<path class="st1" d="M260.9,113.4v-5.1c0-0.8-0.3-1.3-1.2-1.3c-0.9,0-1.6,0.5-2,0.8v5.7h-1.9v-7.8h1.8l0.1,0.8
			c0.4-0.3,1.2-1,2.8-1c1.5,0,2.4,1,2.4,2.4v5.6H260.9z"/>
		<path class="st1" d="M270.6,113.4l-0.1-0.7c-0.4,0.3-1,0.9-2.4,0.9c-2.1,0-3.6-1.4-3.6-3.9c0-2.6,1.8-4.2,3.6-4.2
			c1.4,0,2.1,0.4,2.4,0.5v-4.8l1.9-0.2v12.5H270.6z M268.6,106.8c-0.9,0-2,0.8-2,2.9c0,2,1.1,2.6,2,2.6c1,0,1.6-0.5,1.9-0.8v-4.3
			C270.2,107.1,269.6,106.8,268.6,106.8z"/>
		<path class="st1" d="M279.2,113.4v-11.8h6.6v1.5h-4.5v3.5h3.2v1.5h-3.2v5.3H279.2z"/>
		<path class="st1" d="M288.3,113.6c-1.5,0-2.4-0.9-2.4-2.1c0-1.3,1.1-2.5,3-2.6l1.6-0.1v-0.7c0-0.7-0.2-1.4-1.4-1.4
			c-1.1,0-1.8,0.4-2.2,0.5l-0.4-1c0.5-0.2,1.6-0.8,3.2-0.8c1.8,0,2.7,0.9,2.7,2.3v4.4c0,0.4,0.2,1,0.3,1.2h-2
			c-0.1-0.2-0.2-0.5-0.2-0.7C290.2,113,289.5,113.6,288.3,113.6z M290.6,109.9l-1.1,0.1c-1,0.1-1.8,0.5-1.8,1.3c0,0.8,0.6,1,1.3,1
			c0.7,0,1.3-0.4,1.6-0.7V109.9z"/>
		<path class="st1" d="M305.9,113.4H304v-5.1c0-0.8-0.3-1.4-1.1-1.4c-0.7,0-1.3,0.5-1.6,0.7v5.8h-1.9v-5.1c0-0.8-0.2-1.4-1.1-1.4
			c-0.7,0-1.3,0.5-1.6,0.7v5.7h-1.9v-7.8h1.8l0.1,0.8c0.4-0.3,1.3-1,2.4-1c1.1,0,1.6,0.4,2,1c0.4-0.4,1.3-1,2.6-1
			c1.6,0,2.3,1,2.3,2.3V113.4z"/>
		<path class="st1" d="M310,102.7c0,0.6-0.5,1.1-1.1,1.1c-0.6,0-1.1-0.5-1.1-1.1c0-0.5,0.5-1.1,1.1-1.1
			C309.5,101.7,310,102.2,310,102.7z M309.9,105.7v7.8H308v-7.8H309.9z"/>
		<path class="st1" d="M312,101.2l1.9-0.2v12.5H312V101.2z"/>
		<path class="st1" d="M318.1,102.7c0,0.6-0.5,1.1-1.1,1.1c-0.6,0-1.1-0.5-1.1-1.1c0-0.5,0.5-1.1,1.1-1.1
			C317.6,101.7,318.1,102.2,318.1,102.7z M318,105.7v7.8h-1.9v-7.8H318z"/>
		<path class="st1" d="M324.1,112.3c1.2,0,1.8-0.2,2.1-0.4l0.4,1c-0.5,0.2-1.2,0.7-3.1,0.7c-2.4,0-3.9-1.5-3.9-4
			c0-2.4,1.7-4.1,3.8-4.1c1.9,0,3.6,1.3,3.6,4.2h-5.3C321.7,111.3,322.5,112.3,324.1,112.3z M323.4,106.8c-1,0-1.5,0.8-1.7,1.8h3.3
			C324.9,107.4,324.3,106.8,323.4,106.8z"/>
		<path class="st1" d="M333.7,113.4v-5.1c0-0.8-0.3-1.3-1.2-1.3c-0.9,0-1.6,0.5-2,0.8v5.7h-1.9v-7.8h1.8l0.1,0.8
			c0.4-0.3,1.2-1,2.8-1c1.5,0,2.4,1,2.4,2.4v5.6H333.7z"/>
		<path class="st1" d="M340.6,113.6c-1.4,0-2.3-0.7-2.3-2.2v-4.6h-1.4v-1.1h1.4l0.7-3.2h1.1l0.1,3.2h2.1v1.1h-2.1v4.1
			c0,0.9,0.3,1.3,1,1.4c0.5,0.1,1,0.1,1.3,0l0.1,1.1C342.1,113.5,341.6,113.6,340.6,113.6z"/>
		<path class="st1" d="M349.1,113.4v-5.1c0-0.8-0.3-1.3-1.3-1.3c-0.8,0-1.6,0.5-2,0.8v5.7H344v-12.2l1.9-0.2v5.5
			c0.4-0.3,1.1-1,2.8-1c1.5,0,2.3,1,2.3,2.4v5.6H349.1z"/>
		<path class="st1" d="M357.1,112.3c1.2,0,1.8-0.2,2.1-0.4l0.4,1c-0.5,0.2-1.2,0.7-3.1,0.7c-2.4,0-3.9-1.5-3.9-4
			c0-2.4,1.7-4.1,3.8-4.1c1.9,0,3.6,1.3,3.6,4.2h-5.3C354.7,111.3,355.5,112.3,357.1,112.3z M356.4,106.8c-1,0-1.5,0.8-1.7,1.8h3.3
			C357.9,107.4,357.3,106.8,356.4,106.8z"/>
		<path class="st1" d="M361.7,113.4v-7.8h1.8l0.1,1.3c0.3-0.4,1.1-1.5,2.1-1.5c0.7,0,1.1,0.3,1.3,0.5l-0.7,1.3
			c-0.2-0.2-0.5-0.3-1-0.3c-0.8,0-1.4,0.8-1.7,1.1v5.3H361.7z"/>
		<path class="st1" d="M370,113.6c-1.5,0-2.4-0.9-2.4-2.1c0-1.3,1.1-2.5,3-2.6l1.6-0.1v-0.7c0-0.7-0.2-1.4-1.4-1.4
			c-1.1,0-1.8,0.4-2.2,0.5l-0.4-1c0.5-0.2,1.6-0.8,3.2-0.8c1.8,0,2.7,0.9,2.7,2.3v4.4c0,0.4,0.2,1,0.3,1.2h-2
			c-0.1-0.2-0.2-0.5-0.2-0.7C371.9,113,371.1,113.6,370,113.6z M372.2,109.9l-1.1,0.1c-1,0.1-1.8,0.5-1.8,1.3c0,0.8,0.6,1,1.3,1
			c0.7,0,1.3-0.4,1.6-0.7V109.9z"/>
		<path class="st1" d="M378.1,105.7l0.1,0.7c0.4-0.3,1-0.9,2.4-0.9c2.1,0,3.6,1.4,3.6,3.9c0,2.6-1.8,4.2-3.6,4.2
			c-1.4,0-2.1-0.4-2.4-0.5v4.4h-1.9v-11.8H378.1z M380.1,112.3c0.9,0,2-0.8,2-2.9c0-1.9-1.1-2.6-2-2.6c-0.9,0-1.6,0.5-1.9,0.7v4.3
			C378.6,112,379.1,112.3,380.1,112.3z"/>
		<path class="st1" d="M388,102.7c0,0.6-0.5,1.1-1.1,1.1c-0.6,0-1.1-0.5-1.1-1.1c0-0.5,0.5-1.1,1.1-1.1
			C387.4,101.7,388,102.2,388,102.7z M387.8,105.7v7.8h-1.9v-7.8H387.8z"/>
		<path class="st1" d="M394,112.3c1.2,0,1.8-0.2,2.1-0.4l0.4,1c-0.5,0.2-1.2,0.7-3.1,0.7c-2.4,0-3.9-1.5-3.9-4
			c0-2.4,1.7-4.1,3.8-4.1c1.9,0,3.6,1.3,3.6,4.2h-5.3C391.5,111.3,392.3,112.3,394,112.3z M393.2,106.8c-1,0-1.5,0.8-1.7,1.8h3.3
			C394.7,107.4,394.2,106.8,393.2,106.8z"/>
	</g>
</g>
</svg>
